<svg width="197" height="40" viewBox="0 0 197 40" fill="none" xmlns="http://www.w3.org/2000/svg">
<path d="M29.1656 40H10.8344C4.84768 40 0 35.1523 0 29.1656V10.8344C0 4.84769 4.84768 0 10.8344 0H29.1656C35.1523 0 40 4.84769 40 10.8344V29.1656C39.9735 35.1523 35.1258 40 29.1656 40Z" fill="#009FE3"/>
<path d="M33.2186 19.5232C33.0331 19.5497 32.8477 19.5497 32.6623 19.5497C30.1192 19.5497 28.053 17.4835 28.053 14.9404C28.053 13.4305 28.7947 12.0795 29.9338 11.2318C29.5894 10.8345 29.1921 10.4371 28.7947 10.0928C28.6358 9.93382 28.4504 9.80136 28.2914 9.66891C28.1855 9.58944 28.053 9.48348 27.9471 9.40401C27.9206 9.37752 27.8941 9.35103 27.8411 9.32454C27.7086 9.21858 27.5497 9.11263 27.4173 9.03316C27.2583 8.9272 27.0994 8.82124 26.9404 8.71528C26.755 8.60932 26.5431 8.47687 26.3312 8.37091C26.1722 8.29144 26.0398 8.21196 25.8808 8.13249C25.7484 8.05302 25.6159 8.00004 25.457 7.94706C25.404 7.92057 25.3245 7.89408 25.2716 7.86759C25.1126 7.78812 24.9537 7.73514 24.7947 7.68216C24.6093 7.60269 24.4504 7.54972 24.2649 7.49674H24.2384C24.053 7.44376 23.8676 7.36429 23.6557 7.31131C23.4702 7.25833 23.2848 7.20534 23.0994 7.15236C23.0729 7.15236 23.0199 7.12587 22.9934 7.12587C22.8345 7.09938 22.649 7.0464 22.4901 7.01991C22.4901 7.01991 22.4901 7.01991 22.4636 7.01991C22.3047 6.99342 22.1722 6.96693 22.0133 6.94044C21.9338 6.94044 21.8808 6.91395 21.8014 6.91395C21.6159 6.88746 21.4305 6.86098 21.2451 6.83449C21.0332 6.808 20.8212 6.80799 20.6358 6.7815C20.4239 6.7815 20.212 6.755 20 6.755C16.3444 6.755 13.0332 8.23846 10.649 10.6226C10.1987 11.0729 9.77487 11.5497 9.40401 12.053C9.27156 12.212 9.1656 12.3974 9.03315 12.5828C8.98017 12.6623 8.92719 12.7682 8.84772 12.8477C8.68878 13.0861 8.55632 13.3245 8.42387 13.563C8.02652 14.2782 7.70865 15.0199 7.44375 15.8146C7.39077 16 7.33778 16.1855 7.2848 16.3709C6.96692 17.51 6.78149 18.7285 6.78149 20C6.78149 20.159 6.78149 20.3179 6.78149 20.4504C6.78149 20.6093 6.7815 20.7418 6.80799 20.9007C6.83448 21.1656 6.86096 21.4305 6.88745 21.6954C6.91394 21.8014 6.91395 21.9073 6.94044 22.0133C6.94044 22.0928 6.96692 22.1722 6.96692 22.2517C6.99341 22.3577 6.99341 22.4901 7.0199 22.5961C7.04639 22.7815 7.09937 22.9934 7.15235 23.1788C7.17884 23.2848 7.20533 23.3908 7.23182 23.4702C7.31129 23.7616 7.39076 24.053 7.49672 24.3444C7.5497 24.4769 7.60268 24.6093 7.65566 24.7418C7.70864 24.8742 7.76163 25.0067 7.81461 25.1391C7.86759 25.2716 7.92057 25.404 8.00004 25.5365C8.05302 25.6689 8.10599 25.8014 8.18546 25.9073C8.29142 26.1457 8.42387 26.3841 8.55632 26.5961C8.55632 26.6226 8.58282 26.6226 8.58282 26.6491L6.91394 31.8146C6.80798 32.1855 6.88745 32.5828 7.17885 32.8477C7.44375 33.1126 7.8411 33.2186 8.21196 33.1126L13.3775 31.4437C13.404 31.4437 13.404 31.4702 13.4305 31.4702C13.6689 31.6027 13.8808 31.7351 14.1192 31.8411C14.2517 31.8941 14.3841 31.9736 14.4901 32.0265C14.5961 32.0795 14.7285 32.1325 14.861 32.1855H14.8875C15.0199 32.2384 15.1524 32.2914 15.2848 32.3444C15.4173 32.3974 15.5497 32.4504 15.6822 32.5034C15.7881 32.5298 15.8676 32.5828 15.9735 32.6093C16.159 32.6623 16.3709 32.7418 16.5828 32.7948C16.6888 32.8212 16.7683 32.8477 16.8742 32.8742C17.2451 32.9537 17.6424 33.0331 18.0133 33.1126C18.1192 33.1391 18.2252 33.1391 18.3576 33.1656C18.6226 33.1921 18.8875 33.2186 19.1524 33.2451C19.3113 33.2451 19.4437 33.2716 19.6027 33.2716C19.7616 33.2716 19.8941 33.2716 20.053 33.2716C27.3643 33.2716 33.2981 27.3378 33.2981 20.0265V19.9736C33.2186 19.8146 33.2186 19.6822 33.2186 19.5232ZM14.8345 21.7219C14.0133 21.7219 13.3245 21.0332 13.3245 20.212C13.3245 19.3908 14.0133 18.702 14.8345 18.702C15.6557 18.702 16.3444 19.3908 16.3444 20.212C16.3444 21.0332 15.6822 21.7219 14.8345 21.7219ZM20 21.7219C19.1788 21.7219 18.4901 21.0332 18.4901 20.212C18.4901 19.3908 19.1788 18.702 20 18.702C20.8477 18.702 21.51 19.3908 21.51 20.212C21.51 21.0332 20.8212 21.7219 20 21.7219ZM25.1391 21.7219C24.3179 21.7219 23.6292 21.0332 23.6292 20.212C23.6292 19.3908 24.3179 18.702 25.1391 18.702C25.9603 18.702 26.649 19.3908 26.649 20.212C26.649 21.0332 25.9603 21.7219 25.1391 21.7219Z" fill="white"/>
<path d="M69.7749 28.2119L69.6689 28.106L68.2914 26.5431L68.212 26.4636C68.1855 26.4371 68.159 26.4106 68.1325 26.4106C68.0265 26.3311 67.8676 26.2782 67.7086 26.2782C67.5497 26.2782 67.3908 26.3311 67.2848 26.4106C67.2848 26.4106 67.2848 26.4106 67.2583 26.4106C67.2318 26.4371 67.2053 26.4636 67.1788 26.4901C66.0663 27.4172 65.0596 28.106 64.1855 28.5828C63.2053 29.0861 62.0133 29.351 60.6888 29.351C58.3577 29.351 56.4769 28.5033 55.0464 26.7815C53.6159 25.0596 52.9272 22.808 52.9272 20.0265C52.9272 17.2451 53.6424 15.0199 55.0729 13.3245C56.5034 11.6292 58.4106 10.7815 60.8212 10.7815C62.0133 10.7815 63.0994 10.9934 64.106 11.4172C64.9537 11.7616 65.8808 12.3444 66.8875 13.1656C67.0199 13.2715 67.1789 13.3245 67.3643 13.3245C67.5762 13.3245 67.7616 13.245 67.8941 13.1126C67.9206 13.0861 67.9471 13.0596 67.9471 13.0331L69.3246 11.4172C69.351 11.3907 69.3775 11.3643 69.3775 11.3378C69.4835 11.2053 69.5365 11.0464 69.5365 10.8609C69.5365 10.649 69.457 10.4636 69.3246 10.3311L69.2981 10.3047C69.2716 10.2782 69.2451 10.2517 69.2186 10.2517C67.9736 9.24505 66.755 8.52982 65.563 8.053C64.1855 7.49671 62.6226 7.23181 60.9007 7.23181C57.1921 7.23181 54.2252 8.42386 52.053 10.808C49.8808 13.1921 48.7682 16.2649 48.7682 20.0265C48.7682 23.8146 49.8543 26.9139 52.053 29.298C54.2252 31.7086 57.1391 32.9007 60.7947 32.9007C62.6226 32.9007 64.2649 32.5828 65.7219 31.9205C66.9934 31.3642 68.3179 30.4636 69.6954 29.2715C69.7219 29.245 69.7484 29.2186 69.7749 29.1921C69.8014 29.1656 69.8014 29.1656 69.8279 29.1391C69.9338 29.0066 69.9868 28.8477 69.9868 28.6623C69.9338 28.4768 69.8808 28.3179 69.7749 28.2119Z" fill="#142630"/>
<path d="M85.3245 16.5563C84.2384 15.4702 82.702 14.9139 80.7417 14.9139C78.543 14.9139 76.8477 15.6821 75.6556 17.192V8.98012C75.6556 8.95363 75.6556 8.92714 75.6556 8.92714C75.6556 8.79469 75.6026 8.66224 75.5232 8.58277C75.4967 8.55628 75.4702 8.52979 75.4437 8.5033C75.4172 8.47681 75.3907 8.45032 75.3642 8.45032C75.2318 8.37085 75.0993 8.31787 74.9404 8.31787H72.6358C72.4768 8.31787 72.3179 8.37085 72.2119 8.45032C72.2119 8.45032 72.2119 8.45032 72.1854 8.45032C72.1589 8.47681 72.1325 8.5033 72.106 8.52979C71.9735 8.66224 71.894 8.79469 71.894 8.98012C71.894 9.00661 71.894 9.0331 71.894 9.05959V32.1589C71.894 32.3973 72 32.6093 72.1589 32.7417C72.2914 32.8477 72.4503 32.9271 72.6358 32.9271H74.9404C75.1258 32.9271 75.2848 32.8742 75.3907 32.7682C75.4172 32.7417 75.4437 32.7417 75.4702 32.7152C75.4967 32.6887 75.4967 32.6887 75.5232 32.6622C75.6026 32.5563 75.6556 32.4503 75.6821 32.3179V22.3311C75.6821 21.1656 76.053 20.1854 76.7947 19.4172C77.5364 18.649 78.4636 18.2781 79.6026 18.2781C80.7417 18.2781 81.6424 18.6225 82.2781 19.3112C82.9139 20 83.2053 20.9801 83.2053 22.2252V32.1589C83.2053 32.3708 83.3112 32.5563 83.4702 32.6887C83.6026 32.7947 83.7616 32.8742 83.947 32.8742H86.2516C86.4371 32.8742 86.596 32.8212 86.702 32.7152C86.7285 32.6887 86.755 32.6887 86.7814 32.6622C86.8079 32.6358 86.8079 32.6358 86.8344 32.6093C86.9139 32.5033 86.9669 32.3973 86.9934 32.2649C86.9934 32.2384 86.9934 32.1854 86.9934 32.1589V20.9801C86.9669 19.1258 86.4371 17.6689 85.3245 16.5563Z" fill="#142630"/>
<path d="M102.94 16C101.669 14.914 99.8411 14.3842 97.5099 14.3842C94.649 14.3842 92.2119 15.4438 90.1987 17.5894C90.1722 17.6159 90.1457 17.6424 90.1192 17.6689L90.0927 17.6954C90.0133 17.8014 89.9868 17.9073 89.9603 18.0398V18.0663C89.9603 18.0928 89.9603 18.1192 89.9603 18.1457C89.9603 18.1722 89.9603 18.1722 89.9603 18.1987C89.9603 18.2252 89.9603 18.2252 89.9603 18.2517C89.9868 18.4106 90.0662 18.5696 90.1722 18.6755C90.1987 18.702 90.1987 18.702 90.2252 18.7285L91.4967 19.9206C91.5232 19.9471 91.5232 19.9471 91.5497 19.9736C91.6821 20.0795 91.8411 20.159 92.0265 20.159C92.2119 20.159 92.3709 20.106 92.4768 20C92.5033 19.9735 92.5298 19.9736 92.5298 19.9471C93.3775 19.1524 94.1192 18.5961 94.7815 18.2252C95.5762 17.8014 96.5033 17.5894 97.5629 17.5894C98.6755 17.5894 99.5497 17.8544 100.185 18.3577C100.821 18.8875 101.166 19.6027 101.166 20.5563V21.1921L97.1921 21.9073C94.755 22.3577 92.8477 23.0199 91.4437 23.9471C90.0927 24.8212 89.404 26.1722 89.404 28C89.404 29.6159 89.9868 30.8345 91.1258 31.6822C92.2649 32.5034 93.7748 32.9272 95.6556 32.9272C98.3311 32.9272 100.265 32.0795 101.404 30.4106V31.7351C101.43 31.9206 101.536 32.106 101.669 32.212C101.801 32.3179 101.96 32.3709 102.146 32.3709H104.079C104.265 32.3709 104.424 32.3179 104.53 32.212C104.556 32.1855 104.583 32.159 104.609 32.159C104.636 32.1325 104.636 32.1325 104.662 32.106C104.742 32 104.795 31.8941 104.821 31.7616C104.821 31.7351 104.821 31.7087 104.821 31.6822V31.6557V20.5298C104.874 18.5431 104.212 17.0861 102.94 16ZM101.219 25.4835C101.219 26.8345 100.742 27.8676 99.8146 28.6623C98.8874 29.4305 97.6954 29.8279 96.2384 29.8279C95.2848 29.8279 94.5431 29.6424 94.0133 29.2716C93.457 28.9007 93.1921 28.3974 93.1921 27.7351C93.1921 26.8875 93.5629 26.2252 94.3311 25.7749C95.0993 25.3246 96.3974 24.9007 98.1987 24.5033L101.219 23.8676V25.4835Z" fill="#142630"/>
<path d="M118.225 31.6822C118.225 31.6557 118.225 31.6557 118.225 31.6822C118.225 31.6557 118.225 31.6557 118.225 31.6557V31.6292C118.225 31.6027 118.225 31.5762 118.225 31.5497L117.987 30.1193C117.987 30.1193 117.987 30.1193 117.987 30.0928V30.0663L117.96 29.9074C117.934 29.8279 117.907 29.7484 117.854 29.6689C117.828 29.6424 117.801 29.616 117.775 29.5895C117.748 29.563 117.722 29.5365 117.695 29.5365C117.616 29.4835 117.51 29.4305 117.404 29.404C117.378 29.404 117.351 29.404 117.351 29.404C117.325 29.404 117.298 29.404 117.298 29.404C117.272 29.404 117.245 29.404 117.245 29.404C117.192 29.404 117.139 29.4305 117.113 29.4305C116.53 29.563 116.027 29.616 115.629 29.616C114.993 29.616 114.517 29.4835 114.199 29.1921C113.907 28.9007 113.748 28.4504 113.748 27.7617V17.9868H117.51C117.642 17.9603 117.775 17.9074 117.854 17.8279C117.881 17.8014 117.907 17.8014 117.907 17.7749C117.934 17.7484 117.934 17.7484 117.96 17.7219C118.04 17.616 118.093 17.51 118.119 17.3776V15.8676V15.8411C118.119 15.8146 118.119 15.7881 118.119 15.7881C118.119 15.6557 118.066 15.5233 117.987 15.4438C117.96 15.4173 117.934 15.3908 117.907 15.3643C117.907 15.3643 117.907 15.3643 117.881 15.3643C117.854 15.3378 117.828 15.3113 117.801 15.3113C117.722 15.2584 117.616 15.2054 117.51 15.1789H113.722V10.2782C113.722 10.2517 113.722 10.2252 113.722 10.2252C113.722 10.0928 113.669 9.96034 113.589 9.88087C113.563 9.85438 113.536 9.82787 113.51 9.80138C113.483 9.77489 113.457 9.74842 113.431 9.74842C113.351 9.69544 113.245 9.64246 113.139 9.61597C113.086 9.61597 113.06 9.61597 113.007 9.61597H110.596C110.543 9.61597 110.517 9.61597 110.464 9.61597C110.358 9.64246 110.252 9.66895 110.146 9.74842C110.146 9.74842 110.146 9.74841 110.119 9.7749C110.093 9.80139 110.093 9.80139 110.066 9.82788L110.04 9.85437C110.013 9.88086 110.013 9.90734 109.987 9.93383L109.96 9.96033C109.881 10.0663 109.854 10.1723 109.828 10.3047V15.2848H107.364C107.338 15.2848 107.311 15.2848 107.311 15.2848C107.205 15.3113 107.099 15.3378 106.993 15.4173C106.993 15.4173 106.993 15.4173 106.967 15.4173C106.94 15.4438 106.94 15.4438 106.914 15.4703L106.887 15.4967C106.861 15.5232 106.861 15.5497 106.834 15.5762L106.808 15.6027C106.729 15.7087 106.702 15.8146 106.676 15.9471V15.9736V17.4835C106.676 17.51 106.676 17.51 106.676 17.5365C106.702 17.6954 106.781 17.8544 106.887 17.9603C106.914 17.9868 106.914 17.9868 106.94 18.0133C107.046 18.0928 107.179 18.1458 107.311 18.1723C107.338 18.1723 107.391 18.1723 107.417 18.1723H109.828V28.1855C109.828 29.7749 110.199 30.967 110.967 31.7087C111.709 32.4769 112.927 32.8477 114.596 32.8477C115.603 32.8477 116.609 32.7153 117.589 32.4239C117.642 32.3974 117.722 32.3974 117.775 32.3709C117.828 32.3444 117.881 32.3179 117.934 32.2915C117.96 32.265 117.987 32.265 117.987 32.2385C118.013 32.212 118.013 32.212 118.04 32.1855C118.119 32.0795 118.172 31.9736 118.199 31.8411C118.199 31.8146 118.199 31.7881 118.199 31.7617C118.225 31.7087 118.225 31.7087 118.225 31.6822Z" fill="#142630"/>
<path d="M138.252 9.00661C138.252 8.98012 138.252 8.98012 138.252 8.98012V8.95364C138.252 8.92715 138.252 8.90065 138.252 8.87416C138.252 8.84767 138.252 8.84768 138.252 8.82119C138.225 8.74172 138.199 8.66224 138.146 8.58277C138.119 8.55628 138.093 8.52979 138.066 8.5033C138.04 8.47681 138.013 8.45032 137.987 8.45032C137.907 8.39734 137.801 8.34436 137.695 8.31787C137.669 8.31787 137.642 8.31787 137.642 8.31787C137.616 8.31787 137.589 8.31787 137.589 8.31787H122.967C122.914 8.31787 122.887 8.31787 122.834 8.31787H122.808C122.808 8.31787 122.808 8.31787 122.781 8.31787C122.755 8.31787 122.729 8.31787 122.702 8.31787C122.649 8.31787 122.57 8.34436 122.517 8.37085C122.358 8.42383 122.225 8.47681 122.093 8.58277L122.066 8.60926C122.04 8.63575 121.987 8.66225 121.96 8.68874C121.934 8.71523 121.934 8.71522 121.907 8.74171C121.881 8.79469 121.828 8.82118 121.801 8.87416C121.775 8.90065 121.775 8.90065 121.748 8.92714C121.616 9.11257 121.51 9.35098 121.483 9.58939C121.483 9.61588 121.483 9.64237 121.483 9.64237V32.1589C121.483 32.1854 121.483 32.1854 121.483 32.2119C121.51 32.3709 121.589 32.5298 121.695 32.6357C121.722 32.6622 121.722 32.6622 121.748 32.6887C121.854 32.7682 121.987 32.8212 122.119 32.8477C122.146 32.8477 122.199 32.8477 122.225 32.8477H124.821C124.874 32.8477 124.901 32.8477 124.927 32.8477C125.007 32.8477 125.06 32.8212 125.113 32.7947C125.166 32.7682 125.219 32.7417 125.272 32.7152C125.298 32.6887 125.325 32.6887 125.325 32.6622C125.351 32.6358 125.351 32.6358 125.378 32.6093C125.457 32.5033 125.51 32.3973 125.536 32.2649C125.536 32.2384 125.536 32.2119 125.536 32.1854V22.543H136.742H136.768C136.848 22.543 136.901 22.5165 136.954 22.4901C137.007 22.4636 137.06 22.4371 137.113 22.4106C137.139 22.3841 137.166 22.3841 137.166 22.3576C137.192 22.3311 137.192 22.3311 137.219 22.3046C137.298 22.1987 137.351 22.0927 137.377 21.9603C137.377 21.9338 137.377 21.9073 137.377 21.8808V19.841V19.8146V19.7881C137.377 19.7616 137.377 19.7351 137.377 19.7086C137.377 19.6821 137.377 19.6821 137.377 19.6556C137.351 19.5761 137.325 19.4967 137.272 19.4172C137.245 19.3907 137.219 19.3642 137.192 19.3377C137.166 19.3112 137.139 19.2848 137.113 19.2848C137.033 19.2318 136.927 19.1788 136.821 19.1523C136.795 19.1523 136.768 19.1523 136.768 19.1523H125.563V11.841H137.589C137.616 11.841 137.642 11.841 137.669 11.841H137.695C137.775 11.841 137.828 11.8146 137.881 11.7881C137.934 11.7616 137.987 11.7351 138.04 11.7086C138.066 11.6821 138.093 11.6821 138.093 11.6556C138.119 11.6291 138.119 11.6291 138.146 11.6026C138.225 11.4967 138.278 11.3907 138.305 11.2583C138.305 11.2318 138.305 11.2053 138.305 11.1788V11.1523L138.252 9.00661Z" fill="#142630"/>
<path d="M157.351 23.6557C157.351 26.3577 156.53 28.5563 154.887 30.2782C153.245 32.0001 151.126 32.8477 148.53 32.8477C145.907 32.8477 143.788 32.0001 142.146 30.2782C140.503 28.5828 139.682 26.3577 139.682 23.6292C139.682 20.8742 140.503 18.649 142.146 16.9537C143.788 15.2583 145.934 14.3842 148.53 14.3842C151.126 14.3842 153.245 15.2318 154.887 16.9537C156.53 18.702 157.351 20.9272 157.351 23.6557ZM143.55 23.6557C143.55 25.457 144 26.9139 144.901 28C145.801 29.0861 147.02 29.6424 148.53 29.6424C150.013 29.6424 151.205 29.0861 152.106 28C153.007 26.9139 153.483 25.457 153.483 23.6557C153.483 21.8279 153.033 20.3709 152.132 19.2848C151.232 18.1987 150.04 17.6424 148.53 17.6424C146.993 17.6424 145.801 18.1987 144.901 19.2848C144 20.3709 143.55 21.8279 143.55 23.6557Z" fill="#142630"/>
<path d="M177.086 23.6557C177.086 26.3577 176.265 28.5563 174.623 30.2782C172.98 32.0001 170.861 32.8477 168.265 32.8477C165.642 32.8477 163.523 32.0001 161.881 30.2782C160.238 28.5828 159.417 26.3577 159.417 23.6292C159.417 20.8742 160.238 18.649 161.881 16.9537C163.523 15.2583 165.669 14.3842 168.265 14.3842C170.861 14.3842 172.98 15.2318 174.623 16.9537C176.265 18.702 177.086 20.9272 177.086 23.6557ZM163.258 23.6557C163.258 25.457 163.709 26.9139 164.609 28C165.51 29.0861 166.728 29.6424 168.238 29.6424C169.722 29.6424 170.914 29.0861 171.815 28C172.715 26.9139 173.192 25.457 173.192 23.6557C173.192 21.8279 172.742 20.3709 171.841 19.2848C170.94 18.1987 169.748 17.6424 168.238 17.6424C166.702 17.6424 165.51 18.1987 164.609 19.2848C163.709 20.3709 163.258 21.8279 163.258 23.6557Z" fill="#142630"/>
<path d="M196.132 8.5298C196.132 8.50331 196.132 8.50331 196.132 8.5298C196.132 8.50331 196.132 8.50331 196.132 8.47682V8.45033C196.132 8.42384 196.132 8.39736 196.132 8.37087C196.132 8.34438 196.132 8.34437 196.132 8.31788C196.106 8.23841 196.08 8.15894 196.027 8.07947C196 8.05298 195.974 8.02649 195.947 8C195.921 7.97351 195.894 7.94702 195.868 7.94702C195.788 7.89403 195.682 7.84106 195.576 7.84106C195.55 7.84106 195.523 7.84106 195.523 7.84106C195.497 7.84106 195.47 7.84106 195.47 7.84106H193.166C193.139 7.84106 193.113 7.84106 193.113 7.84106C193.086 7.84106 193.086 7.84106 193.06 7.84106C193.033 7.84106 193.007 7.84106 192.954 7.86755C192.874 7.89404 192.795 7.92053 192.742 7.97351C192.742 7.97351 192.742 7.97351 192.715 7.97351C192.689 8 192.689 8.00001 192.662 8.0265L192.636 8.05298C192.609 8.07947 192.609 8.10596 192.583 8.13245L192.556 8.15895C192.477 8.26491 192.45 8.37087 192.424 8.50332C192.424 8.50332 192.424 8.50331 192.424 8.5298V17.1126C191.232 15.4172 189.404 14.596 186.993 14.596C184.768 14.596 182.94 15.4437 181.457 17.1391C180 18.8344 179.258 21.0596 179.258 23.7616C179.258 26.4901 179.974 28.6887 181.431 30.3841C182.861 32.0795 184.715 32.9272 186.94 32.9272C189.536 32.9272 191.444 31.9205 192.689 29.9073V31.7351V31.7616V31.7881C192.715 31.947 192.795 32.106 192.901 32.2119C192.927 32.2384 192.927 32.2384 192.954 32.2649C193.06 32.3444 193.192 32.4238 193.325 32.4238H193.351C193.378 32.4238 193.404 32.4238 193.43 32.4238H195.47C195.497 32.4238 195.523 32.4238 195.55 32.4238H195.576C195.656 32.4238 195.709 32.3974 195.762 32.3709C195.815 32.3444 195.868 32.3179 195.921 32.2914C195.947 32.2649 195.974 32.2649 195.974 32.2384C196 32.2119 196 32.2119 196.027 32.1854C196.106 32.0795 196.159 31.9735 196.185 31.8411C196.185 31.8146 196.185 31.7881 196.185 31.7616V31.7351L196.132 8.5298ZM191.126 28C190.225 29.0596 189.06 29.6159 187.603 29.6159C186.225 29.6159 185.113 29.0861 184.265 28C183.444 26.9139 183.02 25.4834 183.02 23.6821C183.02 21.9073 183.444 20.4768 184.291 19.4172C185.139 18.3311 186.252 17.8013 187.629 17.8013C189.06 17.8013 190.225 18.3311 191.099 19.3907C191.974 20.4503 192.424 21.8808 192.424 23.6821C192.424 25.4834 192 26.9139 191.126 28Z" fill="#142630"/>
</svg>
