<svg width="112" height="112" viewBox="0 0 112 112" fill="none" xmlns="http://www.w3.org/2000/svg">
<path d="M55.9997 9.33325C30.2397 9.33325 9.33301 30.2399 9.33301 55.9999C9.33301 81.7599 30.2397 102.667 55.9997 102.667C81.7597 102.667 102.666 81.7599 102.666 55.9999C102.666 30.2399 81.7597 9.33325 55.9997 9.33325ZM18.6663 55.9999C18.6663 35.3733 35.373 18.6666 55.9997 18.6666C64.633 18.6666 72.5663 21.6066 78.8663 26.5533L26.553 78.8666C21.6063 72.5666 18.6663 64.6333 18.6663 55.9999ZM55.9997 93.3333C47.3663 93.3333 39.433 90.3933 33.133 85.4466L85.4463 33.1333C90.393 39.4333 93.333 47.3666 93.333 55.9999C93.333 76.6266 76.6263 93.3333 55.9997 93.3333Z" fill="#F15A22"/>
</svg>
