<svg width="112" height="112" viewBox="0 0 112 112" fill="none" xmlns="http://www.w3.org/2000/svg">
<path d="M56.0002 9.33325C30.2402 9.33325 9.3335 30.2399 9.3335 55.9999C9.3335 81.7599 30.2402 102.667 56.0002 102.667C81.7602 102.667 102.667 81.7599 102.667 55.9999C102.667 30.2399 81.7602 9.33325 56.0002 9.33325ZM56.0002 93.3333C35.4202 93.3333 18.6668 76.5799 18.6668 55.9999C18.6668 35.4199 35.4202 18.6666 56.0002 18.6666C76.5802 18.6666 93.3335 35.4199 93.3335 55.9999C93.3335 76.5799 76.5802 93.3333 56.0002 93.3333ZM77.4202 35.3733L46.6668 66.1266L34.5802 54.0866L28.0002 60.6666L46.6668 79.3333L84.0002 41.9999L77.4202 35.3733Z" fill="#63BC44"/>
</svg>
